<mxfile host="app.diagrams.net" agent="Mozilla/5.0 (X11; Linux x86_64; rv:109.0) Gecko/20100101 Firefox/115.0" version="24.7.6">
  <diagram name="Page-1" id="Rq4Vgw_5d9vgPGQWiq_x">
    <mxGraphModel dx="1066" dy="1562" grid="1" gridSize="10" guides="1" tooltips="1" connect="1" arrows="1" fold="1" page="1" pageScale="1" pageWidth="850" pageHeight="1100" math="0" shadow="0">
      <root>
        <mxCell id="0" />
        <mxCell id="1" parent="0" />
        <mxCell id="fkFMP3JX3WEj0m_sH6AM-30" value="" style="swimlane;startSize=0;" parent="1" vertex="1">
          <mxGeometry x="190" width="520" height="950" as="geometry" />
        </mxCell>
        <mxCell id="fkFMP3JX3WEj0m_sH6AM-28" value="BusinessOwner" style="shape=umlActor;verticalLabelPosition=bottom;verticalAlign=top;html=1;outlineConnect=0;" parent="fkFMP3JX3WEj0m_sH6AM-30" vertex="1">
          <mxGeometry x="-160" y="120" width="50" height="90" as="geometry" />
        </mxCell>
        <mxCell id="fkFMP3JX3WEj0m_sH6AM-31" value="S&#39;authentifier" style="ellipse;whiteSpace=wrap;html=1;" parent="fkFMP3JX3WEj0m_sH6AM-30" vertex="1">
          <mxGeometry x="370" y="60" width="140" height="70" as="geometry" />
        </mxCell>
        <mxCell id="fkFMP3JX3WEj0m_sH6AM-32" value="&amp;lt;&amp;lt;include&amp;gt;&amp;gt;" style="endArrow=open;endSize=12;dashed=1;html=1;rounded=0;exitX=1;exitY=0.5;exitDx=0;exitDy=0;" parent="fkFMP3JX3WEj0m_sH6AM-30" source="fkFMP3JX3WEj0m_sH6AM-41" target="fkFMP3JX3WEj0m_sH6AM-31" edge="1">
          <mxGeometry width="160" relative="1" as="geometry">
            <mxPoint x="235" y="-8.11" as="sourcePoint" />
            <mxPoint x="454.57758505560196" y="98.11254095269726" as="targetPoint" />
          </mxGeometry>
        </mxCell>
        <mxCell id="fkFMP3JX3WEj0m_sH6AM-33" value="&amp;lt;&amp;lt;include&amp;gt;&amp;gt;" style="endArrow=open;endSize=12;dashed=1;html=1;rounded=0;exitX=0.954;exitY=0.374;exitDx=0;exitDy=0;exitPerimeter=0;" parent="fkFMP3JX3WEj0m_sH6AM-30" source="fkFMP3JX3WEj0m_sH6AM-40" target="fkFMP3JX3WEj0m_sH6AM-31" edge="1">
          <mxGeometry width="160" relative="1" as="geometry">
            <mxPoint x="170" y="53.5" as="sourcePoint" />
            <mxPoint x="390" y="160" as="targetPoint" />
          </mxGeometry>
        </mxCell>
        <mxCell id="fkFMP3JX3WEj0m_sH6AM-34" value="&amp;lt;&amp;lt;include&amp;gt;&amp;gt;" style="endArrow=open;endSize=12;dashed=1;html=1;rounded=0;exitX=0.968;exitY=0.289;exitDx=0;exitDy=0;exitPerimeter=0;" parent="fkFMP3JX3WEj0m_sH6AM-30" source="fkFMP3JX3WEj0m_sH6AM-39" target="fkFMP3JX3WEj0m_sH6AM-31" edge="1">
          <mxGeometry width="160" relative="1" as="geometry">
            <mxPoint x="190" y="270" as="sourcePoint" />
            <mxPoint x="390" y="386.5" as="targetPoint" />
          </mxGeometry>
        </mxCell>
        <mxCell id="fkFMP3JX3WEj0m_sH6AM-35" value="Ajouter son produit" style="ellipse;whiteSpace=wrap;html=1;" parent="fkFMP3JX3WEj0m_sH6AM-30" vertex="1">
          <mxGeometry x="70.5" y="40" width="140" height="70" as="geometry" />
        </mxCell>
        <mxCell id="fkFMP3JX3WEj0m_sH6AM-36" value="Modifier son produit" style="ellipse;whiteSpace=wrap;html=1;" parent="fkFMP3JX3WEj0m_sH6AM-30" vertex="1">
          <mxGeometry x="70.5" y="120" width="140" height="70" as="geometry" />
        </mxCell>
        <mxCell id="fkFMP3JX3WEj0m_sH6AM-38" value="&lt;div&gt;Supprimer son produit&lt;/div&gt;" style="ellipse;whiteSpace=wrap;html=1;" parent="fkFMP3JX3WEj0m_sH6AM-30" vertex="1">
          <mxGeometry x="70.5" y="198.45" width="140" height="70" as="geometry" />
        </mxCell>
        <mxCell id="fkFMP3JX3WEj0m_sH6AM-39" value="Ajouter&amp;nbsp;son service" style="ellipse;whiteSpace=wrap;html=1;" parent="fkFMP3JX3WEj0m_sH6AM-30" vertex="1">
          <mxGeometry x="70.5" y="277.79999999999995" width="140" height="70" as="geometry" />
        </mxCell>
        <mxCell id="fkFMP3JX3WEj0m_sH6AM-40" value="Modifier son service" style="ellipse;whiteSpace=wrap;html=1;" parent="fkFMP3JX3WEj0m_sH6AM-30" vertex="1">
          <mxGeometry x="70.5" y="357.79999999999995" width="140" height="70" as="geometry" />
        </mxCell>
        <mxCell id="fkFMP3JX3WEj0m_sH6AM-41" value="Supprimer son service" style="ellipse;whiteSpace=wrap;html=1;" parent="fkFMP3JX3WEj0m_sH6AM-30" vertex="1">
          <mxGeometry x="70.5" y="437.79999999999995" width="140" height="70" as="geometry" />
        </mxCell>
        <mxCell id="fkFMP3JX3WEj0m_sH6AM-42" value="Consulter ses produits" style="ellipse;whiteSpace=wrap;html=1;" parent="fkFMP3JX3WEj0m_sH6AM-30" vertex="1">
          <mxGeometry x="70.5" y="517.8" width="140" height="70" as="geometry" />
        </mxCell>
        <mxCell id="fkFMP3JX3WEj0m_sH6AM-43" value="Contacter l&#39;admin" style="ellipse;whiteSpace=wrap;html=1;" parent="fkFMP3JX3WEj0m_sH6AM-30" vertex="1">
          <mxGeometry x="70.5" y="597.8" width="140" height="70" as="geometry" />
        </mxCell>
        <mxCell id="fkFMP3JX3WEj0m_sH6AM-44" value="" style="endArrow=none;html=1;rounded=0;entryX=0;entryY=0.5;entryDx=0;entryDy=0;" parent="fkFMP3JX3WEj0m_sH6AM-30" edge="1">
          <mxGeometry relative="1" as="geometry">
            <mxPoint x="-70" y="230" as="sourcePoint" />
            <mxPoint x="70.5" y="552.8000000000002" as="targetPoint" />
          </mxGeometry>
        </mxCell>
        <mxCell id="fkFMP3JX3WEj0m_sH6AM-45" value="" style="endArrow=none;html=1;rounded=0;entryX=0;entryY=0.5;entryDx=0;entryDy=0;" parent="fkFMP3JX3WEj0m_sH6AM-30" edge="1">
          <mxGeometry relative="1" as="geometry">
            <mxPoint x="-70" y="250" as="sourcePoint" />
            <mxPoint x="70.5" y="632.8000000000002" as="targetPoint" />
          </mxGeometry>
        </mxCell>
        <mxCell id="fkFMP3JX3WEj0m_sH6AM-46" value="" style="endArrow=none;html=1;rounded=0;entryX=0;entryY=0.5;entryDx=0;entryDy=0;" parent="fkFMP3JX3WEj0m_sH6AM-30" edge="1">
          <mxGeometry relative="1" as="geometry">
            <mxPoint x="-74" y="190" as="sourcePoint" />
            <mxPoint x="70.5" y="392.79999999999995" as="targetPoint" />
          </mxGeometry>
        </mxCell>
        <mxCell id="fkFMP3JX3WEj0m_sH6AM-47" value="" style="endArrow=none;html=1;rounded=0;entryX=0;entryY=0.5;entryDx=0;entryDy=0;" parent="fkFMP3JX3WEj0m_sH6AM-30" edge="1">
          <mxGeometry relative="1" as="geometry">
            <mxPoint x="-70" y="210" as="sourcePoint" />
            <mxPoint x="70.5" y="472.79999999999995" as="targetPoint" />
          </mxGeometry>
        </mxCell>
        <mxCell id="fkFMP3JX3WEj0m_sH6AM-48" value="" style="endArrow=none;html=1;rounded=0;" parent="fkFMP3JX3WEj0m_sH6AM-30" edge="1">
          <mxGeometry relative="1" as="geometry">
            <mxPoint x="-70" y="180" as="sourcePoint" />
            <mxPoint x="70.69303309256259" y="310.8525314639094" as="targetPoint" />
          </mxGeometry>
        </mxCell>
        <mxCell id="fkFMP3JX3WEj0m_sH6AM-49" value="" style="endArrow=none;html=1;rounded=0;" parent="fkFMP3JX3WEj0m_sH6AM-30" target="fkFMP3JX3WEj0m_sH6AM-38" edge="1">
          <mxGeometry relative="1" as="geometry">
            <mxPoint x="-70" y="170" as="sourcePoint" />
            <mxPoint x="78.81878123554907" y="249.99861966851103" as="targetPoint" />
          </mxGeometry>
        </mxCell>
        <mxCell id="fkFMP3JX3WEj0m_sH6AM-54" value="Supprimer&amp;nbsp;son compte" style="ellipse;whiteSpace=wrap;html=1;" parent="fkFMP3JX3WEj0m_sH6AM-30" vertex="1">
          <mxGeometry x="70" y="680" width="140" height="70" as="geometry" />
        </mxCell>
        <mxCell id="fkFMP3JX3WEj0m_sH6AM-55" value="&amp;lt;&amp;lt;include&amp;gt;&amp;gt;" style="endArrow=open;endSize=12;dashed=1;html=1;rounded=0;exitX=1;exitY=0.4;exitDx=0;exitDy=0;exitPerimeter=0;entryX=0.75;entryY=0.971;entryDx=0;entryDy=0;entryPerimeter=0;" parent="fkFMP3JX3WEj0m_sH6AM-30" source="fkFMP3JX3WEj0m_sH6AM-54" target="fkFMP3JX3WEj0m_sH6AM-31" edge="1">
          <mxGeometry width="160" relative="1" as="geometry">
            <mxPoint x="170" y="442" as="sourcePoint" />
            <mxPoint x="470" y="140" as="targetPoint" />
          </mxGeometry>
        </mxCell>
        <mxCell id="fkFMP3JX3WEj0m_sH6AM-63" value="&amp;lt;&amp;lt;include&amp;gt;&amp;gt;" style="endArrow=open;endSize=12;dashed=1;html=1;rounded=0;entryX=0;entryY=1;entryDx=0;entryDy=0;" parent="fkFMP3JX3WEj0m_sH6AM-30" source="fkFMP3JX3WEj0m_sH6AM-38" target="fkFMP3JX3WEj0m_sH6AM-31" edge="1">
          <mxGeometry width="160" relative="1" as="geometry">
            <mxPoint x="216" y="308" as="sourcePoint" />
            <mxPoint x="415" y="135" as="targetPoint" />
          </mxGeometry>
        </mxCell>
        <mxCell id="fkFMP3JX3WEj0m_sH6AM-88" value="&amp;lt;&amp;lt;include&amp;gt;&amp;gt;" style="endArrow=open;endSize=12;dashed=1;html=1;rounded=0;exitX=0.996;exitY=0.286;exitDx=0;exitDy=0;exitPerimeter=0;" parent="fkFMP3JX3WEj0m_sH6AM-30" source="fkFMP3JX3WEj0m_sH6AM-36" target="fkFMP3JX3WEj0m_sH6AM-31" edge="1">
          <mxGeometry width="160" relative="1" as="geometry">
            <mxPoint x="220" y="140" as="sourcePoint" />
            <mxPoint x="389" y="60" as="targetPoint" />
          </mxGeometry>
        </mxCell>
        <mxCell id="fkFMP3JX3WEj0m_sH6AM-115" value="&amp;lt;&amp;lt;include&amp;gt;&amp;gt;" style="endArrow=open;endSize=12;dashed=1;html=1;rounded=0;" parent="fkFMP3JX3WEj0m_sH6AM-30" source="fkFMP3JX3WEj0m_sH6AM-35" target="fkFMP3JX3WEj0m_sH6AM-31" edge="1">
          <mxGeometry width="160" relative="1" as="geometry">
            <mxPoint x="250" y="92" as="sourcePoint" />
            <mxPoint x="415" y="60" as="targetPoint" />
          </mxGeometry>
        </mxCell>
        <mxCell id="PQB2T6UrnItoZjkJQsqc-3" value="&amp;lt;&amp;lt;include&amp;gt;&amp;gt;" style="endArrow=open;endSize=12;dashed=1;html=1;rounded=0;exitX=1;exitY=0.5;exitDx=0;exitDy=0;entryX=0.586;entryY=1.057;entryDx=0;entryDy=0;entryPerimeter=0;" edge="1" parent="fkFMP3JX3WEj0m_sH6AM-30" source="fkFMP3JX3WEj0m_sH6AM-43" target="fkFMP3JX3WEj0m_sH6AM-31">
          <mxGeometry width="160" relative="1" as="geometry">
            <mxPoint x="220" y="718" as="sourcePoint" />
            <mxPoint x="470" y="137" as="targetPoint" />
          </mxGeometry>
        </mxCell>
        <mxCell id="fkFMP3JX3WEj0m_sH6AM-53" value="" style="endArrow=none;html=1;rounded=0;entryX=0;entryY=0.5;entryDx=0;entryDy=0;" parent="fkFMP3JX3WEj0m_sH6AM-30" target="fkFMP3JX3WEj0m_sH6AM-54" edge="1">
          <mxGeometry relative="1" as="geometry">
            <mxPoint x="-70" y="270" as="sourcePoint" />
            <mxPoint x="70.5" y="721.55" as="targetPoint" />
          </mxGeometry>
        </mxCell>
        <mxCell id="fkFMP3JX3WEj0m_sH6AM-56" value="" style="endArrow=none;html=1;rounded=0;" parent="fkFMP3JX3WEj0m_sH6AM-30" target="fkFMP3JX3WEj0m_sH6AM-35" edge="1">
          <mxGeometry relative="1" as="geometry">
            <mxPoint x="-70" y="140" as="sourcePoint" />
            <mxPoint x="98" y="28" as="targetPoint" />
          </mxGeometry>
        </mxCell>
        <mxCell id="fkFMP3JX3WEj0m_sH6AM-57" value="" style="endArrow=none;html=1;rounded=0;" parent="fkFMP3JX3WEj0m_sH6AM-30" target="fkFMP3JX3WEj0m_sH6AM-36" edge="1">
          <mxGeometry relative="1" as="geometry">
            <mxPoint x="-70" y="155" as="sourcePoint" />
            <mxPoint x="88" y="101" as="targetPoint" />
          </mxGeometry>
        </mxCell>
        <mxCell id="fkFMP3JX3WEj0m_sH6AM-58" value="&amp;lt;&amp;lt;include&amp;gt;&amp;gt;" style="endArrow=open;endSize=12;dashed=1;html=1;rounded=0;exitX=1;exitY=0.5;exitDx=0;exitDy=0;" parent="fkFMP3JX3WEj0m_sH6AM-30" source="fkFMP3JX3WEj0m_sH6AM-42" edge="1">
          <mxGeometry width="160" relative="1" as="geometry">
            <mxPoint x="221" y="483" as="sourcePoint" />
            <mxPoint x="430" y="138" as="targetPoint" />
          </mxGeometry>
        </mxCell>
        <mxCell id="fkFMP3JX3WEj0m_sH6AM-60" value="Manager son profil" style="ellipse;whiteSpace=wrap;html=1;" parent="fkFMP3JX3WEj0m_sH6AM-30" vertex="1">
          <mxGeometry x="70" y="760" width="140" height="70" as="geometry" />
        </mxCell>
        <mxCell id="fkFMP3JX3WEj0m_sH6AM-62" value="" style="endArrow=none;html=1;rounded=0;entryX=0;entryY=0.5;entryDx=0;entryDy=0;" parent="fkFMP3JX3WEj0m_sH6AM-30" target="fkFMP3JX3WEj0m_sH6AM-60" edge="1">
          <mxGeometry relative="1" as="geometry">
            <mxPoint x="-70" y="290" as="sourcePoint" />
            <mxPoint x="80" y="725" as="targetPoint" />
          </mxGeometry>
        </mxCell>
        <mxCell id="PQB2T6UrnItoZjkJQsqc-1" value="Manager ses commandes" style="ellipse;whiteSpace=wrap;html=1;" vertex="1" parent="fkFMP3JX3WEj0m_sH6AM-30">
          <mxGeometry x="70" y="840" width="140" height="70" as="geometry" />
        </mxCell>
        <mxCell id="PQB2T6UrnItoZjkJQsqc-2" value="&amp;lt;&amp;lt;include&amp;gt;&amp;gt;" style="endArrow=open;endSize=12;dashed=1;html=1;rounded=0;exitX=0.993;exitY=0.629;exitDx=0;exitDy=0;exitPerimeter=0;entryX=0.9;entryY=0.857;entryDx=0;entryDy=0;entryPerimeter=0;" edge="1" parent="fkFMP3JX3WEj0m_sH6AM-30" source="PQB2T6UrnItoZjkJQsqc-1" target="fkFMP3JX3WEj0m_sH6AM-31">
          <mxGeometry width="160" relative="1" as="geometry">
            <mxPoint x="220" y="718" as="sourcePoint" />
            <mxPoint x="470" y="137" as="targetPoint" />
          </mxGeometry>
        </mxCell>
        <mxCell id="PQB2T6UrnItoZjkJQsqc-5" value="&amp;lt;&amp;lt;include&amp;gt;&amp;gt;" style="endArrow=open;endSize=12;dashed=1;html=1;rounded=0;exitX=0.986;exitY=0.572;exitDx=0;exitDy=0;exitPerimeter=0;entryX=0.75;entryY=0.971;entryDx=0;entryDy=0;entryPerimeter=0;" edge="1" parent="fkFMP3JX3WEj0m_sH6AM-30" source="fkFMP3JX3WEj0m_sH6AM-60">
          <mxGeometry width="160" relative="1" as="geometry">
            <mxPoint x="220" y="718" as="sourcePoint" />
            <mxPoint x="485" y="138" as="targetPoint" />
          </mxGeometry>
        </mxCell>
        <mxCell id="PQB2T6UrnItoZjkJQsqc-6" value="" style="endArrow=none;html=1;rounded=0;entryX=0;entryY=0.5;entryDx=0;entryDy=0;" edge="1" parent="fkFMP3JX3WEj0m_sH6AM-30" target="PQB2T6UrnItoZjkJQsqc-1">
          <mxGeometry relative="1" as="geometry">
            <mxPoint x="-70" y="320" as="sourcePoint" />
            <mxPoint x="70" y="885" as="targetPoint" />
          </mxGeometry>
        </mxCell>
        <mxCell id="fkFMP3JX3WEj0m_sH6AM-51" value="&lt;b&gt;&lt;font style=&quot;font-size: 15px;&quot; color=&quot;#1a5fb4&quot;&gt;Use Case BusinessOwner Annuaire digitale d&#39;entreprises&lt;/font&gt;&lt;/b&gt;" style="text;html=1;align=center;verticalAlign=middle;resizable=0;points=[];autosize=1;strokeColor=none;fillColor=none;" parent="1" vertex="1">
          <mxGeometry x="230" y="-40" width="430" height="30" as="geometry" />
        </mxCell>
      </root>
    </mxGraphModel>
  </diagram>
</mxfile>
